<mxfile host="app.diagrams.net" agent="Mozilla/5.0 (Windows NT 10.0; Win64; x64) AppleWebKit/537.36 (KHTML, like Gecko) Chrome/134.0.0.0 Safari/537.36" version="26.1.1">
  <diagram name="Page-1" id="QnmkF6rdkfiO5BrK3Q8K">
    <mxGraphModel dx="713" dy="739" grid="1" gridSize="10" guides="1" tooltips="1" connect="1" arrows="1" fold="1" page="1" pageScale="1" pageWidth="850" pageHeight="1100" background="#ffffff" math="0" shadow="0">
      <root>
        <mxCell id="0" />
        <mxCell id="1" parent="0" />
        <mxCell id="L_HBThBT_UnwE4ZmhdUK-1" value="Bắt đầu&amp;nbsp;" style="ellipse;whiteSpace=wrap;html=1;fontSize=14;" parent="1" vertex="1">
          <mxGeometry x="170" y="480" width="120" height="80" as="geometry" />
        </mxCell>
        <mxCell id="L_HBThBT_UnwE4ZmhdUK-2" value="Khởi tạo giá trị mặc định" style="shape=parallelogram;perimeter=parallelogramPerimeter;whiteSpace=wrap;html=1;fixedSize=1;fontSize=14;align=center;" parent="1" vertex="1">
          <mxGeometry x="160" y="610" width="120" height="60" as="geometry" />
        </mxCell>
        <mxCell id="L_HBThBT_UnwE4ZmhdUK-3" value="Đọc các giá trị từ cảm biến khí gas hiện tại" style="rounded=0;whiteSpace=wrap;html=1;fontSize=14;" parent="1" vertex="1">
          <mxGeometry x="160" y="720" width="120" height="60" as="geometry" />
        </mxCell>
        <mxCell id="L_HBThBT_UnwE4ZmhdUK-4" value="&amp;nbsp;khí gas vượt&lt;div&gt;&amp;nbsp;ngưỡng 250&lt;/div&gt;" style="rhombus;whiteSpace=wrap;html=1;fontSize=14;" parent="1" vertex="1">
          <mxGeometry x="147.5" y="815" width="145" height="135" as="geometry" />
        </mxCell>
        <mxCell id="L_HBThBT_UnwE4ZmhdUK-10" value="" style="endArrow=classic;html=1;rounded=0;fontSize=14;" parent="1" target="L_HBThBT_UnwE4ZmhdUK-2" edge="1">
          <mxGeometry width="50" height="50" relative="1" as="geometry">
            <mxPoint x="220" y="560" as="sourcePoint" />
            <mxPoint x="250" y="560" as="targetPoint" />
            <Array as="points">
              <mxPoint x="220" y="560" />
            </Array>
          </mxGeometry>
        </mxCell>
        <mxCell id="L_HBThBT_UnwE4ZmhdUK-14" value="" style="endArrow=classic;html=1;rounded=0;exitX=0.5;exitY=1;exitDx=0;exitDy=0;fontSize=14;" parent="1" source="L_HBThBT_UnwE4ZmhdUK-2" edge="1">
          <mxGeometry width="50" height="50" relative="1" as="geometry">
            <mxPoint x="220" y="673" as="sourcePoint" />
            <mxPoint x="220" y="720" as="targetPoint" />
          </mxGeometry>
        </mxCell>
        <mxCell id="L_HBThBT_UnwE4ZmhdUK-16" value="" style="endArrow=classic;html=1;rounded=0;entryX=0.5;entryY=0;entryDx=0;entryDy=0;exitX=0.5;exitY=1;exitDx=0;exitDy=0;fontSize=14;" parent="1" source="L_HBThBT_UnwE4ZmhdUK-3" target="L_HBThBT_UnwE4ZmhdUK-4" edge="1">
          <mxGeometry width="50" height="50" relative="1" as="geometry">
            <mxPoint x="190" y="830" as="sourcePoint" />
            <mxPoint x="240" y="780" as="targetPoint" />
          </mxGeometry>
        </mxCell>
        <mxCell id="L_HBThBT_UnwE4ZmhdUK-19" value="" style="endArrow=classic;html=1;rounded=0;entryX=0;entryY=0.5;entryDx=0;entryDy=0;exitX=1;exitY=0.5;exitDx=0;exitDy=0;fontSize=14;" parent="1" source="L_HBThBT_UnwE4ZmhdUK-4" edge="1">
          <mxGeometry width="50" height="50" relative="1" as="geometry">
            <mxPoint x="240" y="890" as="sourcePoint" />
            <mxPoint x="380" y="882.5" as="targetPoint" />
          </mxGeometry>
        </mxCell>
        <mxCell id="L_HBThBT_UnwE4ZmhdUK-22" value="" style="endArrow=classic;html=1;rounded=0;entryX=0;entryY=0.5;entryDx=0;entryDy=0;exitX=0.5;exitY=1;exitDx=0;exitDy=0;fontSize=14;" parent="1" source="L_HBThBT_UnwE4ZmhdUK-4" edge="1">
          <mxGeometry width="50" height="50" relative="1" as="geometry">
            <mxPoint x="210" y="940" as="sourcePoint" />
            <mxPoint x="380" y="970" as="targetPoint" />
            <Array as="points">
              <mxPoint x="220" y="970" />
            </Array>
          </mxGeometry>
        </mxCell>
        <mxCell id="L_HBThBT_UnwE4ZmhdUK-23" value="" style="endArrow=classic;html=1;rounded=0;entryX=1;entryY=0.5;entryDx=0;entryDy=0;exitX=0.5;exitY=1;exitDx=0;exitDy=0;fontSize=14;" parent="1" edge="1">
          <mxGeometry width="50" height="50" relative="1" as="geometry">
            <mxPoint x="670" y="900" as="sourcePoint" />
            <mxPoint x="500" y="970" as="targetPoint" />
            <Array as="points">
              <mxPoint x="670" y="970" />
            </Array>
          </mxGeometry>
        </mxCell>
        <mxCell id="L_HBThBT_UnwE4ZmhdUK-24" value="Đ" style="text;html=1;align=center;verticalAlign=middle;resizable=0;points=[];autosize=1;strokeColor=none;fillColor=none;fontSize=14;" parent="1" vertex="1">
          <mxGeometry x="290" y="840" width="30" height="30" as="geometry" />
        </mxCell>
        <mxCell id="L_HBThBT_UnwE4ZmhdUK-25" value="S" style="text;html=1;align=center;verticalAlign=middle;resizable=0;points=[];autosize=1;strokeColor=none;fillColor=none;fontSize=14;" parent="1" vertex="1">
          <mxGeometry x="270" y="940" width="30" height="30" as="geometry" />
        </mxCell>
        <mxCell id="fJ7FFuRoMdxfgNhylBaN-2" value="Khí gas hiện tại lớn hơn giá trị&amp;nbsp;&lt;div&gt;khí gas trước đó&lt;/div&gt;" style="rhombus;whiteSpace=wrap;html=1;" vertex="1" parent="1">
          <mxGeometry x="380" y="804.38" width="190" height="156.25" as="geometry" />
        </mxCell>
      </root>
    </mxGraphModel>
  </diagram>
</mxfile>
